<svg width="1062" height="443" viewBox="0 0 1062 443" fill="none" xmlns="http://www.w3.org/2000/svg">
<g clip-path="url(#clip0_4_207)" filter="url(#filter0_d_4_207)">
<path d="M647.457 221.721L709.39 159.977L647.457 98.233L666.339 79.414L747.154 159.977L666.339 240.54L647.457 221.721Z" fill="#003554"/>
<path d="M495.771 135.207H470.595V160.383H495.771V135.207Z" fill="#003554"/>
<path d="M596.979 135.207H571.803V160.383H596.979V135.207Z" fill="#003554"/>
<path d="M546.375 135.207H521.199V160.383H546.375V135.207Z" fill="#003554"/>
<path d="M436.482 221.092L374.486 159.348L436.419 97.604L417.537 78.785L336.785 159.348L417.6 239.911L436.482 221.092Z" fill="#003554"/>
<path d="M647.457 209.763L709.39 148.019L647.457 86.274L666.339 67.455L747.154 148.019L666.339 228.582L647.457 209.763Z" fill="white"/>
<path d="M470.595 152.424H495.771V127.248H470.595L470.595 152.424ZM596.979 127.248H571.803V152.424H596.979V127.248ZM521.199 152.424H546.375V127.248H521.199V152.424Z" fill="white"/>
<path d="M436.482 209.133L374.486 147.389L436.419 85.645L417.537 66.826L336.785 147.389L417.6 227.952L436.482 209.133Z" fill="white"/>
<path d="M133.305 410.449L147.399 413.856L167.248 361.117L146.447 356.088L133.305 410.449Z" fill="#F7CFCF"/>
<path d="M126.632 423.105L130.96 405.203L158.534 411.869C163.175 412.996 167.179 415.918 169.667 419.994C172.156 424.07 172.927 428.966 171.81 433.609L171.714 434.003L126.632 423.105Z" fill="#2F2E41"/>
<path d="M195.696 420.05L210.196 420.049L217.093 364.122L195.694 364.123L195.696 420.05Z" fill="#F7CFCF"/>
<path d="M192.183 415.501L220.552 415.5H220.553C225.33 415.5 229.911 417.398 233.289 420.776C236.667 424.153 238.565 428.735 238.565 433.512V433.917L192.184 433.919L192.183 415.501Z" fill="#2F2E41"/>
<path d="M192.294 400.697L194.677 313.69L191.466 278.409L185.201 305.56L157.821 394.845L134.218 388.634L161.554 292.363L155.617 230.615L172.674 219.65L172.904 219.692L231.183 230.434L217.105 398.217L192.294 400.697Z" fill="#2F2E41"/>
<path d="M215.359 242.547C210.665 242.547 205.177 241.036 199.067 236.723C179.516 222.924 156.204 237.768 155.971 237.918L155.024 238.534L155.057 237.405C155.081 236.602 157.422 156.694 157.422 130.981C157.422 104.415 174.754 85.0188 180.067 79.707C185.281 74.4924 189.668 74.6078 195.221 74.7522C196.178 74.7765 197.176 74.803 198.225 74.803C205.483 74.803 212.539 81.7756 212.836 82.0724L212.977 82.2145L213.004 82.4131L233.142 234.044L232.988 234.24C232.895 234.359 226.282 242.547 215.359 242.547Z" fill="#CCCCCC"/>
<path d="M226.796 50.7365C234.491 36.6597 229.318 19.0101 215.241 11.315C201.164 3.61988 183.514 8.79329 175.819 22.8701C168.124 36.9469 173.298 54.5966 187.374 62.2916C201.451 69.9867 219.101 64.8133 226.796 50.7365Z" fill="#F7CFCF"/>
<path d="M245.775 266.826C244.401 265.761 243.277 264.408 242.482 262.862C241.688 261.315 241.242 259.613 241.176 257.876C241.11 256.138 241.426 254.408 242.101 252.806C242.777 251.204 243.795 249.769 245.085 248.603L228.589 209.692L250.188 213.668L262.542 250.009C264.357 252.305 265.267 255.188 265.098 258.11C264.93 261.033 263.695 263.792 261.629 265.865C259.562 267.938 256.807 269.181 253.885 269.358C250.963 269.535 248.077 268.634 245.775 266.826V266.826Z" fill="#F7CFCF"/>
<path d="M241.103 244.677L211.295 183.87L198.225 138.105L198.236 98.3471C198.265 98.19 201.338 82.725 212.726 83.7945C223.052 84.7947 228.614 89.8442 231.323 100.679C233.624 109.883 230.477 137.189 230.172 139.765C232.17 144.503 262.148 215.93 257.185 224.531C257 224.866 256.729 225.147 256.401 225.344L261.713 236.559L241.103 244.677Z" fill="#CCCCCC"/>
<path d="M197.593 47.7471C201.076 48.2002 203.702 44.6374 204.921 41.344C206.139 38.0507 207.067 34.2165 210.095 32.4375C214.231 30.007 219.523 32.9302 224.253 32.1283C229.594 31.2227 233.067 25.5617 233.339 20.1508C233.612 14.7399 231.458 9.53567 229.346 4.54684L228.608 10.7468C228.707 8.64551 228.264 6.55402 227.324 4.67242C226.383 2.79083 224.975 1.18206 223.235 0L224.186 9.09752C223.984 7.84237 223.535 6.63955 222.867 5.55806C222.199 4.47657 221.323 3.53769 220.291 2.79535C219.259 2.05301 218.091 1.5218 216.853 1.23221C215.615 0.942617 214.332 0.900343 213.077 1.10782L213.227 6.52847C207.058 5.79485 200.834 5.0602 194.646 5.61911C188.459 6.17802 182.228 8.13577 177.538 12.2109C170.523 18.3066 167.961 28.344 168.821 37.5977C169.681 46.8515 173.501 55.5446 177.482 63.9423C178.484 66.0552 179.869 68.4395 182.192 68.7086C184.279 68.9504 186.189 67.2059 186.837 65.2076C187.337 63.1572 187.318 61.0145 186.781 58.9736C186.194 55.8545 185.454 52.6663 186.006 49.5408C186.558 46.4154 188.806 43.3268 191.957 42.9437C195.108 42.5607 198.332 46.1621 196.817 48.9511L197.593 47.7471Z" fill="#A67700"/>
<path d="M386 434.745H5C4.73478 434.745 4.48043 434.64 4.29289 434.453C4.10536 434.265 4 434.011 4 433.745C4 433.48 4.10536 433.226 4.29289 433.038C4.48043 432.851 4.73478 432.745 5 432.745H386C386.265 432.745 386.52 432.851 386.707 433.038C386.895 433.226 387 433.48 387 433.745C387 434.011 386.895 434.265 386.707 434.453C386.52 434.64 386.265 434.745 386 434.745Z" fill="#3F3D56"/>
</g>
<defs>
<filter id="filter0_d_4_207" x="0" y="0" width="1066" height="442.745" filterUnits="userSpaceOnUse" color-interpolation-filters="sRGB">
<feFlood flood-opacity="0" result="BackgroundImageFix"/>
<feColorMatrix in="SourceAlpha" type="matrix" values="0 0 0 0 0 0 0 0 0 0 0 0 0 0 0 0 0 0 127 0" result="hardAlpha"/>
<feOffset dy="4"/>
<feGaussianBlur stdDeviation="2"/>
<feComposite in2="hardAlpha" operator="out"/>
<feColorMatrix type="matrix" values="0 0 0 0 0 0 0 0 0 0 0 0 0 0 0 0 0 0 0.25 0"/>
<feBlend mode="normal" in2="BackgroundImageFix" result="effect1_dropShadow_4_207"/>
<feBlend mode="normal" in="SourceGraphic" in2="effect1_dropShadow_4_207" result="shape"/>
</filter>
<clipPath id="clip0_4_207">
<rect width="1058" height="434.745" fill="white" transform="translate(4)"/>
</clipPath>
</defs>
</svg>
